<svg width="20" height="21" viewBox="0 0 20 21" fill="none" xmlns="http://www.w3.org/2000/svg">
<g clip-path="url(#clip0_768_5032)">
<path d="M10 0.5C5.85788 0.5 2.5 3.87535 2.5 8.03907C2.5 9.43152 2.77114 10.8697 3.54922 11.9063L10 20.5L16.4508 11.9063C17.1575 10.9648 17.5 9.30032 17.5 8.03907C17.5 3.87535 14.1421 0.5 10 0.5ZM10 4.86645C11.7429 4.86645 13.1562 6.28713 13.1562 8.03905C13.1562 9.791 11.7429 11.2117 10 11.2117C8.25715 11.2117 6.84384 9.791 6.84384 8.03907C6.84384 6.28713 8.25715 4.86645 10 4.86645Z" fill="#B89F61"/>
</g>
<defs>
<clipPath id="clip0_768_5032">
<rect width="20" height="20" fill="white" transform="translate(0 0.5)"/>
</clipPath>
</defs>
</svg>
