<svg width="16" height="16" viewBox="0 0 16 16" fill="none" xmlns="http://www.w3.org/2000/svg">
<path fill-rule="evenodd" clip-rule="evenodd" d="M0.87868 0.87868C1.44129 0.31607 2.20435 0 3 0H7C7.55228 0 8 0.447715 8 1C8 1.55228 7.55228 2 7 2H3C2.73478 2 2.48043 2.10536 2.29289 2.29289C2.10536 2.48043 2 2.73478 2 3V13C2 13.2652 2.10536 13.5196 2.29289 13.7071C2.48043 13.8946 2.73478 14 3 14H13C13.2652 14 13.5196 13.8946 13.7071 13.7071C13.8946 13.5196 14 13.2652 14 13V9C14 8.44772 14.4477 8 15 8C15.5523 8 16 8.44772 16 9V13C16 13.7957 15.6839 14.5587 15.1213 15.1213C14.5587 15.6839 13.7957 16 13 16H3C2.20435 16 1.44129 15.6839 0.87868 15.1213C0.31607 14.5587 0 13.7956 0 13V3C0 2.20435 0.31607 1.44129 0.87868 0.87868ZM11 2C10.4477 2 10 1.55228 10 1C10 0.447715 10.4477 0 11 0H15C15.5523 0 16 0.447715 16 1V5C16 5.55228 15.5523 6 15 6C14.4477 6 14 5.55228 14 5V3.41421L8.70711 8.70711C8.31658 9.09763 7.68342 9.09763 7.29289 8.70711C6.90237 8.31658 6.90237 7.68342 7.29289 7.29289L12.5858 2H11Z" fill="#B89F61"/>
</svg>
