<svg width="26" height="22" viewBox="0 0 26 22" fill="none" xmlns="http://www.w3.org/2000/svg">
<path d="M4.83333 0.5C3.75037 0.5 2.71175 0.942499 1.94598 1.73015C1.18021 2.5178 0.75 3.58609 0.75 4.7V5.1221L13 11.9072L25.25 5.1242V4.7C25.25 3.58609 24.8198 2.5178 24.054 1.73015C23.2882 0.942499 22.2496 0.5 21.1667 0.5H4.83333ZM25.25 7.5077L13.4839 14.024C13.3352 14.1063 13.1689 14.1494 13 14.1494C12.8311 14.1494 12.6648 14.1063 12.5161 14.024L0.75 7.5077V17.3C0.75 18.4139 1.18021 19.4822 1.94598 20.2698C2.71175 21.0575 3.75037 21.5 4.83333 21.5H21.1667C22.2496 21.5 23.2882 21.0575 24.054 20.2698C24.8198 19.4822 25.25 18.4139 25.25 17.3V7.5077Z" fill="#B89F61"/>
</svg>
