<svg width="26" height="26" viewBox="0 0 26 26" fill="none" xmlns="http://www.w3.org/2000/svg">
<path d="M25.214 19.2679L24.1014 24.0911C23.9451 24.7729 23.3457 25.25 22.6437 25.25C10.5701 25.249 0.75 15.4304 0.75 3.35806C0.75 2.65659 1.22708 2.05656 1.90907 1.90105L6.73297 0.788561C7.4355 0.625778 8.15334 0.990389 8.44526 1.65559L10.6715 6.84722C10.9318 7.45873 10.7562 8.17121 10.2418 8.59132L7.66521 10.6598C9.29136 13.972 11.9847 16.6649 15.2983 18.2918L17.4077 15.7175C17.8235 15.2017 18.5415 15.0232 19.1531 15.288L24.3454 17.5135C24.97 17.842 25.3767 18.5693 25.214 19.2679Z" fill="#B89F61"/>
</svg>
