<svg width="18" height="18" viewBox="0 0 18 18" fill="none" xmlns="http://www.w3.org/2000/svg">
<path d="M11.0142 9.00037L17.1571 2.8718C17.4261 2.60279 17.5772 2.23794 17.5772 1.85751C17.5772 1.47708 17.4261 1.11223 17.1571 0.843227C16.8881 0.574221 16.5232 0.423096 16.1428 0.423096C15.7624 0.423096 15.3975 0.574221 15.1285 0.843227L8.99994 6.98608L2.87137 0.843227C2.60236 0.574221 2.23751 0.423096 1.85708 0.423096C1.47665 0.423096 1.1118 0.574221 0.842796 0.843227C0.573791 1.11223 0.422665 1.47708 0.422665 1.85751C0.422665 2.23794 0.573791 2.60279 0.842796 2.8718L6.98565 9.00037L0.842796 15.1289C0.708898 15.2617 0.602621 15.4197 0.530094 15.5938C0.457568 15.7679 0.420227 15.9546 0.420227 16.1432C0.420227 16.3318 0.457568 16.5185 0.530094 16.6926C0.602621 16.8667 0.708898 17.0247 0.842796 17.1575C0.9756 17.2914 1.1336 17.3977 1.30769 17.4702C1.48177 17.5427 1.66849 17.5801 1.85708 17.5801C2.04567 17.5801 2.23239 17.5427 2.40648 17.4702C2.58056 17.3977 2.73856 17.2914 2.87137 17.1575L8.99994 11.0147L15.1285 17.1575C15.2613 17.2914 15.4193 17.3977 15.5934 17.4702C15.7675 17.5427 15.9542 17.5801 16.1428 17.5801C16.3314 17.5801 16.5181 17.5427 16.6922 17.4702C16.8663 17.3977 17.0243 17.2914 17.1571 17.1575C17.291 17.0247 17.3973 16.8667 17.4698 16.6926C17.5423 16.5185 17.5797 16.3318 17.5797 16.1432C17.5797 15.9546 17.5423 15.7679 17.4698 15.5938C17.3973 15.4197 17.291 15.2617 17.1571 15.1289L11.0142 9.00037Z" fill="white"/>
</svg>
