<svg width="22" height="18" viewBox="0 0 22 18" fill="none" xmlns="http://www.w3.org/2000/svg">
<path fill-rule="evenodd" clip-rule="evenodd" d="M0.5 1.125C0.5 0.50368 1.00368 0 1.625 0H20.375C20.9963 0 21.5 0.50368 21.5 1.125C21.5 1.74632 20.9963 2.25 20.375 2.25H1.625C1.00368 2.25 0.5 1.74632 0.5 1.125Z" fill="white"/>
<path fill-rule="evenodd" clip-rule="evenodd" d="M0.5 9C0.5 8.37868 1.00368 7.875 1.625 7.875H20.375C20.9963 7.875 21.5 8.37868 21.5 9C21.5 9.62132 20.9963 10.125 20.375 10.125H1.625C1.00368 10.125 0.5 9.62132 0.5 9Z" fill="white"/>
<path fill-rule="evenodd" clip-rule="evenodd" d="M0.5 16.875C0.5 16.2537 1.00368 15.75 1.625 15.75H20.375C20.9963 15.75 21.5 16.2537 21.5 16.875C21.5 17.4963 20.9963 18 20.375 18H1.625C1.00368 18 0.5 17.4963 0.5 16.875Z" fill="white"/>
</svg>
